<svg xmlns:xhtml="http://www.w3.org/1999/xhtml" xmlns:dc="http://purl.org/dc/elements/1.1/" xmlns:cc="http://creativecommons.org/ns#" xmlns:rdf="http://www.w3.org/1999/02/22-rdf-syntax-ns#" xmlns:svg="http://www.w3.org/2000/svg" xmlns="http://www.w3.org/2000/svg" xmlns:sodipodi="http://sodipodi.sourceforge.net/DTD/sodipodi-0.dtd" xmlns:inkscape="http://www.inkscape.org/namespaces/inkscape" id="Layer_3" x="0px" y="0px" viewBox="0 0 1000 1000" style="enable-background:new 0 0 1000 1000;" xml:space="preserve" sodipodi:docname="biel-tan.svg" inkscape:version="1.0.2-2 (e86c870879, 2021-01-15)"><metadata></metadata><defs id="defs11"></defs><g id="g6" style="fill:#ffffff">	<path d="M501.2,338.6c0,0,266.8-235.6,129.4-312.6c-79.2-44.4-130.7,31-130.7,31s-51.7-75.5-130.9-31   C231.7,103,501.2,338.6,501.2,338.6z" id="path2" style="fill:#ffffff"></path>	<path d="M729,81c9,115-44.7,208.6-126,251c-37,19.3-74.3,23.6-103,23c-28.7,0.6-66-3.7-103-23c-81.3-42.4-135-136-126-251   c-30,0-60,0-90,0c3,35.3,16.8,143.4,104,237c63.4,68,135.2,95.9,171,107c7.5,34.7,11.2,69,12,104H294c0,34.7,0,69.3,0,104   c18.8-10.1,42.6-20.7,71-29c39.7-11.6,75-14.8,101.8-15c-3.3,55.3-12.2,114.1-23.8,181c-14.1,81-36.6,159.1-58,219   c37.7,0,77.3,0,115,0s77.3,0,115,0c-21.4-59.9-43.9-138-58-219c-11.7-66.9-20.6-125.7-23.8-181c26.9,0.2,62.2,3.4,101.8,15   c28.4,8.3,52.2,18.9,71,29c0-34.7,0-69.3,0-104H532c0.8-35,4.6-69.3,12-104c35.8-11.1,107.6-39,171-107   c87.2-93.6,101-201.7,104-237C789,81,759,81,729,81z" id="path4" style="fill:#ffffff"></path></g></svg>