<svg xmlns:xhtml="http://www.w3.org/1999/xhtml" xmlns:dc="http://purl.org/dc/elements/1.1/" xmlns:cc="http://creativecommons.org/ns#" xmlns:rdf="http://www.w3.org/1999/02/22-rdf-syntax-ns#" xmlns:svg="http://www.w3.org/2000/svg" xmlns="http://www.w3.org/2000/svg" xmlns:sodipodi="http://sodipodi.sourceforge.net/DTD/sodipodi-0.dtd" xmlns:inkscape="http://www.inkscape.org/namespaces/inkscape" id="Layer_2" x="0px" y="0px" viewBox="0 0 879.8 879.8" style="enable-background:new 0 0 879.8 879.8;" xml:space="preserve" sodipodi:docname="chaos-star-01.svg" inkscape:version="1.0.2-2 (e86c870879, 2021-01-15)"><metadata></metadata><defs id="defs7"></defs><polygon points="879.8,442.4 782.2,344.7 782.2,411.9 511.3,411.9 703.6,219.6 751,267 751,128.9 612.9,128.9 660.4,176.4   470.5,366.2 470.5,97.7 537.6,97.7 439.9,0 342.2,97.7 409.4,97.7 409.4,369.8 217.7,178.1 265.2,130.6 127.1,130.6 127.1,268.7   174.5,221.3 365.1,411.9 97.7,411.9 97.7,344.7 0,442.4 97.7,540.1 97.7,473 363.7,473 176.4,660.4 128.9,612.9 128.9,751 267,751   219.6,703.6 409.4,513.7 409.4,782.2 342.2,782.2 439.9,879.8 537.6,782.2 470.5,782.2 470.5,517.3 658.5,705.3 611.1,752.7   749.3,752.7 749.3,614.6 701.8,662.1 512.7,473 782.2,473 782.2,540.1 " id="polygon2" style="fill:#ffffff"></polygon></svg>