<svg xmlns="http://www.w3.org/2000/svg" width="1131.000000pt" height="1146.000000pt" viewBox="0 0 1131.000000 1146.000000" preserveAspectRatio="xMidYMid meet"><g transform="translate(0.000000,1146.000000) scale(0.100000,-0.100000)" fill="#ffffff" stroke="none"><path d="M2537 10942 c-29 -6 -19 -30 30 -67 207 -158 706 -676 878 -910 16 -22 32 -42 35 -45 13 -11 171 -220 239 -318 40 -57 71 -111 69 -120 -3 -17 -21 -28 -93 -58 -22 -10 -75 -44 -117 -76 -43 -32 -80 -58 -84 -58 -9 0 -83 -70 -229 -218 -114 -115 -134 -140 -148 -186 -9 -29 -17 -64 -17 -79 0 -14 -4 -29 -10 -32 -6 -4 -10 -146 -10 -393 0 -362 -1 -390 -19 -425 -20 -39 -89 -99 -127 -111 -12 -3 -29 -15 -39 -26 -10 -11 -22 -20 -28 -20 -5 0 -27 -16 -48 -35 -22 -19 -44 -35 -50 -35 -6 0 -28 -14 -48 -30 -20 -17 -42 -35 -48 -41 -17 -13 -16 -44 2 -59 22 -19 257 3 276 26 16 20 63 17 82 -4 19 -20 23 -97 7 -107 -5 -3 -10 -14 -10 -24 0 -20 -38 -113 -50 -121 -20 -15 -110 -267 -110 -309 0 -11 -4 -23 -10 -26 -5 -3 -14 -24 -20 -47 -7 -22 -22 -57 -34 -77 -18 -28 -21 -40 -12 -53 13 -21 -16 -88 -38 -88 -25 0 -312 135 -478 226 -53 29 -123 67 -155 84 -32 17 -76 42 -98 56 -22 13 -56 33 -75 44 -104 61 -130 76 -178 109 -29 20 -77 52 -107 71 -29 19 -81 55 -116 80 -34 25 -85 61 -113 80 -53 37 -282 214 -326 252 -14 11 -59 50 -100 86 -41 35 -102 87 -135 115 -88 75 -488 478 -579 585 -44 51 -83 89 -88 84 -12 -12 -5 -6115 7 -6118 6 -2 25 16 43 39 80 100 427 453 607 618 130 120 411 351 480 395 17 10 53 37 82 59 77 60 141 105 158 111 26 10 28 -25 5 -89 -21 -59 -30 -105 -47 -249 -14 -112 26 -582 54 -648 6 -14 18 -47 26 -75 45 -146 79 -227 113 -268 13 -16 24 -36 24 -45 0 -10 20 -40 45 -67 25 -28 45 -54 45 -59 0 -5 7 -18 17 -28 9 -10 21 -27 27 -37 25 -43 112 -151 122 -151 6 0 42 37 80 82 38 45 108 123 157 172 48 50 87 94 87 98 0 14 322 338 335 338 7 0 18 7 25 15 15 18 50 20 50 4 0 -14 -101 -108 -116 -109 -6 0 -49 -42 -95 -92 -46 -51 -112 -121 -146 -154 -35 -34 -63 -64 -63 -66 0 -3 -20 -27 -45 -52 -26 -27 -45 -57 -45 -70 0 -22 -52 -78 -102 -109 -15 -9 -41 -37 -58 -63 -27 -38 -31 -51 -25 -80 3 -19 15 -43 26 -52 11 -9 38 -40 59 -69 22 -28 51 -63 64 -78 14 -15 28 -37 32 -49 4 -11 16 -27 26 -35 11 -7 26 -29 34 -47 8 -19 18 -34 22 -34 4 0 18 -17 32 -38 13 -20 40 -56 60 -79 19 -22 51 -62 70 -88 19 -26 54 -71 78 -100 23 -28 42 -57 42 -64 0 -6 4 -11 9 -11 5 0 25 -24 44 -52 19 -29 49 -66 66 -82 17 -17 31 -35 31 -42 0 -7 18 -32 40 -55 22 -24 43 -51 46 -61 3 -10 9 -18 14 -18 4 0 24 -24 43 -52 19 -29 49 -66 66 -82 17 -17 31 -39 31 -51 0 -25 -225 -250 -385 -386 -64 -55 -95 -87 -95 -98 0 -8 885 -11 3075 -11 2944 0 3075 1 3066 18 -5 10 -38 42 -73 72 -303 260 -647 625 -937 995 -87 110 -83 105 -103 135 -10 14 -35 50 -57 80 -131 179 -345 519 -456 725 -53 98 -225 442 -225 450 0 2 -12 29 -26 59 -37 78 -32 90 41 96 33 3 67 9 75 15 15 10 118 27 157 26 12 -1 35 4 50 10 33 12 97 27 168 39 28 4 64 12 80 18 46 16 169 44 318 72 27 5 54 13 60 18 7 6 30 12 52 15 37 4 108 22 195 48 19 6 52 13 73 16 20 3 40 9 43 14 3 5 17 9 32 9 15 0 36 7 46 15 11 8 31 15 44 15 13 0 45 7 71 15 25 8 80 24 121 36 41 12 79 25 85 30 5 5 17 9 26 9 15 0 150 54 201 81 10 5 25 9 33 9 27 0 315 146 315 160 0 4 20 15 45 23 24 9 59 27 77 40 18 14 60 39 93 56 33 18 86 53 119 79 32 26 71 55 87 65 37 24 14 37 302 -172 56 -41 104 -77 107 -81 3 -4 23 -20 46 -36 76 -55 252 -205 444 -381 149 -136 173 -159 409 -415 90 -98 168 -175 173 -172 13 9 10 6121 -4 6130 -6 4 -29 -15 -57 -47 -147 -173 -429 -459 -621 -630 -244 -217 -554 -458 -814 -629 -111 -74 -333 -210 -342 -210 -2 0 -23 -12 -47 -27 -83 -53 -505 -266 -657 -333 -41 -18 -94 -41 -118 -52 -33 -15 -46 -17 -57 -8 -16 13 -10 69 11 112 10 18 11 29 3 33 -7 5 -10 79 -8 224 2 244 -17 671 -31 715 -6 16 -10 87 -10 157 0 75 -5 139 -12 156 -6 15 -15 78 -19 138 -17 233 -38 403 -50 411 -5 3 -9 22 -9 42 0 20 -7 46 -15 56 -8 11 -15 34 -15 51 0 18 -3 35 -7 39 -8 8 -42 126 -50 171 -2 17 -10 44 -18 60 -7 17 -21 50 -31 75 -9 25 -25 63 -35 86 -11 22 -19 46 -19 53 0 6 -11 29 -25 49 -14 20 -25 42 -25 48 0 6 -7 17 -15 24 -8 7 -15 19 -15 27 0 28 -132 183 -155 183 -6 0 -24 14 -40 30 -16 17 -36 30 -45 30 -19 0 -60 40 -60 59 0 7 28 48 63 93 34 44 90 117 125 161 35 45 80 100 101 122 21 22 48 54 60 70 95 126 541 569 709 704 24 19 39 38 34 43 -7 7 -6066 17 -6105 10z m3493 -856 c69 -9 160 -22 203 -31 42 -8 112 -22 155 -30 399 -74 458 -91 642 -176 211 -99 379 -197 481 -281 51 -41 140 -154 209 -263 187 -299 311 -727 341 -1185 29 -442 29 -506 -6 -425 -9 22 -29 76 -44 120 -62 178 -178 428 -278 600 -12 22 -26 47 -30 55 -21 47 -161 271 -200 324 -121 161 -236 244 -578 421 -246 127 -334 158 -730 260 -93 24 -190 50 -215 58 -41 13 -43 15 -20 20 14 3 93 11 175 17 235 17 245 22 134 70 -165 70 -334 120 -440 130 -57 5 -133 14 -169 19 -78 12 -273 28 -430 36 -63 3 -160 11 -215 16 -81 8 -122 7 -210 -6 -61 -8 -123 -20 -140 -25 -16 -5 -55 -11 -85 -12 -48 -3 -55 -1 -58 17 -1 11 -14 69 -28 128 -19 78 -23 112 -15 121 34 40 1252 57 1551 22z m-445 -609 c178 -32 340 -66 495 -106 240 -62 240 -62 390 -114 367 -127 712 -309 851 -447 144 -143 371 -528 493 -836 38 -97 159 -456 181 -538 90 -340 89 -335 81 -662 -9 -362 -1 -407 119 -714 8 -19 30 -78 50 -130 35 -90 51 -128 112 -262 43 -93 63 -88 -334 -88 l-348 0 -52 33 c-46 28 -199 121 -243 147 -8 5 -46 28 -83 52 -38 24 -85 52 -105 64 -20 12 -84 51 -142 87 -58 36 -137 86 -176 110 l-71 44 -6 393 c-4 216 -7 481 -7 589 0 201 -4 226 -49 351 -51 142 -114 321 -133 375 -11 33 -26 65 -32 71 -6 6 -60 19 -121 28 -60 10 -148 24 -195 31 -47 8 -130 21 -185 29 -252 39 -430 66 -550 86 -38 7 -117 18 -174 26 -115 15 -133 23 -188 90 -21 25 -50 60 -65 77 -54 62 -53 62 205 81 624 45 782 76 866 172 55 62 39 97 -59 129 -140 45 -127 41 -395 105 -71 17 -157 37 -190 45 -33 8 -96 21 -140 30 -44 9 -96 21 -115 26 -19 4 -87 18 -150 29 -63 12 -146 27 -185 35 -38 8 -95 19 -125 24 -80 16 -218 28 -445 41 -110 6 -250 15 -312 21 -74 7 -137 7 -190 0 -43 -5 -131 -13 -196 -16 -64 -4 -130 -10 -146 -15 -49 -14 -54 3 -13 41 95 90 158 132 322 214 153 77 421 185 457 185 7 0 27 6 45 14 81 34 190 61 273 67 50 4 270 5 490 4 310 -2 420 -6 490 -18z m-1550 -767 c11 -18 -111 -173 -237 -300 -64 -65 -113 -103 -207 -158 -89 -53 -129 -72 -144 -68 -12 4 -39 28 -60 54 -20 26 -57 69 -82 97 -25 27 -45 54 -45 58 0 5 -10 7 -22 5 -36 -5 -46 -50 -21 -95 79 -143 103 -196 98 -211 -11 -35 -83 -83 -138 -92 -28 -4 -56 -5 -61 -2 -15 8 2 674 17 684 23 15 117 -16 117 -39 0 -8 -13 -22 -30 -31 -16 -9 -30 -20 -30 -23 0 -12 77 -59 97 -59 24 0 73 53 73 79 0 9 -7 27 -16 39 -31 45 -24 46 272 58 393 15 412 15 419 4z m500 -816 c77 -8 190 -21 250 -29 61 -8 169 -21 240 -29 464 -55 582 -70 710 -91 50 -8 133 -22 185 -30 301 -49 456 -93 484 -138 20 -31 33 -129 51 -377 36 -520 46 -645 61 -805 23 -240 31 -266 108 -340 73 -71 229 -176 421 -285 50 -28 97 -55 105 -60 8 -6 27 -15 43 -21 15 -6 27 -15 27 -19 0 -5 9 -12 21 -15 11 -4 18 -9 15 -13 -7 -7 -84 17 -111 35 -11 7 -25 13 -32 13 -26 0 -374 169 -488 237 -44 26 -109 70 -144 97 -142 110 -152 142 -266 876 -58 375 -79 482 -93 487 -7 3 -37 -22 -69 -58 -115 -131 -395 -389 -568 -523 -27 -22 -54 -44 -60 -50 -5 -6 -55 -47 -110 -91 -55 -43 -120 -97 -146 -120 -25 -22 -74 -65 -109 -95 -35 -30 -113 -103 -174 -161 -233 -222 -354 -335 -661 -619 -45 -41 -108 -100 -140 -130 -32 -30 -82 -74 -109 -98 -28 -25 -83 -75 -122 -111 -38 -36 -104 -96 -145 -132 -41 -36 -93 -83 -116 -103 -44 -39 -104 -56 -132 -37 -12 7 -12 12 0 27 15 21 130 129 304 289 60 55 125 116 146 135 20 19 54 51 75 71 22 19 100 92 174 160 74 69 160 148 190 175 29 27 68 63 85 79 17 17 94 89 170 160 76 72 180 169 229 216 169 160 221 207 251 230 17 13 49 39 71 58 117 101 149 127 168 140 52 36 302 257 411 363 148 146 305 337 305 373 0 25 -209 89 -360 110 -25 3 -63 10 -85 15 -41 9 -167 28 -365 54 -63 9 -151 20 -195 26 -44 6 -123 15 -175 20 -52 5 -123 13 -157 18 -34 5 -68 5 -75 1 -7 -5 -13 -41 -14 -101 -4 -151 -73 -373 -167 -539 -47 -83 -68 -106 -147 -161 -139 -95 -286 -154 -369 -146 -112 11 -328 146 -395 249 -56 84 -99 234 -100 349 -1 101 11 143 61 219 13 18 20 38 16 44 -4 6 -58 8 -153 5 -156 -6 -187 -1 -159 27 19 19 193 79 272 94 32 6 63 13 68 17 6 3 34 9 62 14 29 4 111 19 182 34 72 14 150 27 175 30 80 7 431 -4 575 -20z m-1305 -340 c0 -8 -14 -50 -31 -92 -52 -130 -79 -201 -117 -312 -63 -178 -129 -383 -170 -525 -109 -374 -236 -758 -329 -995 -24 -63 -51 -131 -58 -150 -64 -168 -73 -182 -101 -159 -11 9 -14 22 -9 48 7 38 112 356 166 501 17 47 44 121 60 165 15 44 42 118 59 165 18 47 67 191 110 320 43 129 93 273 110 320 17 47 37 103 44 125 8 22 26 72 41 110 67 176 78 203 97 250 26 63 67 155 79 175 5 8 14 27 20 43 12 29 29 36 29 11z m210 -451 c151 -195 247 -282 348 -317 63 -22 223 -25 292 -6 25 7 61 16 80 20 45 10 179 59 250 92 84 38 120 51 127 45 35 -36 -309 -238 -452 -265 -157 -30 -282 -19 -405 35 -118 52 -281 259 -304 384 -6 36 0 69 13 69 3 0 26 -26 51 -57z m2620 -25 c1 -29 0 -157 0 -285 -1 -222 4 -279 36 -438 18 -90 21 -143 9 -153 -6 -5 -53 -23 -105 -41 -367 -124 -337 -116 -378 -101 -20 7 -53 17 -72 21 -19 4 -74 18 -122 33 l-87 26 -98 -31 c-191 -59 -216 -69 -271 -106 -55 -37 -100 -63 -108 -63 -9 0 29 54 167 239 108 145 172 220 244 286 54 50 110 101 124 115 61 58 245 221 342 302 57 48 147 123 199 168 52 44 100 80 107 80 9 0 13 -17 13 -52z m-840 -108 c13 -13 33 -20 60 -20 49 0 52 -18 9 -42 -40 -23 -58 -23 -86 4 -22 21 -30 57 -16 71 9 10 11 9 33 -13z m-661 -697 c11 -24 10 -29 -9 -45 -31 -25 -75 -23 -94 4 -19 26 -13 38 19 38 13 0 30 7 37 15 19 22 33 18 47 -12z m4287 -481 c6 -4 24 -36 41 -72 17 -36 61 -128 98 -205 110 -228 162 -339 168 -357 3 -9 -3 -40 -14 -70 -32 -85 -80 -221 -89 -253 -5 -16 -23 -68 -40 -115 -67 -182 -109 -326 -110 -371 0 -34 23 -49 120 -78 122 -37 133 -43 170 -85 54 -62 120 -149 120 -158 0 -10 -88 -136 -203 -293 -29 -38 -66 -89 -82 -113 -32 -49 -44 -56 -100 -67 -39 -7 -169 -60 -333 -136 -45 -22 -85 -39 -87 -39 -3 0 -36 -14 -73 -31 -384 -178 -464 -201 -1112 -315 -47 -9 -114 -22 -150 -29 -36 -8 -108 -21 -160 -30 -52 -9 -133 -23 -180 -31 -47 -8 -121 -21 -165 -28 -44 -8 -123 -22 -175 -30 -160 -28 -330 -61 -465 -91 -33 -7 -98 -21 -145 -30 -210 -41 -260 -59 -375 -135 -67 -44 -503 -305 -585 -350 -52 -29 -155 -98 -229 -154 -73 -55 -161 -121 -195 -146 -33 -25 -96 -72 -138 -105 -42 -33 -112 -85 -155 -115 -239 -169 -570 -468 -722 -654 -196 -240 -206 -261 -238 -514 -8 -57 -25 -53 -77 20 -23 31 -61 83 -86 116 -25 32 -110 148 -190 256 -262 356 -303 410 -374 496 -38 47 -77 92 -85 101 -9 9 -41 47 -71 84 -30 37 -94 115 -142 172 -49 58 -88 112 -88 121 0 8 24 47 53 86 30 39 64 90 78 114 13 23 31 44 39 47 8 3 91 80 185 170 93 91 172 165 176 165 3 0 15 8 26 17 153 133 492 362 733 496 25 14 104 57 175 97 72 39 137 77 145 85 8 7 43 25 78 39 35 15 95 42 135 60 40 19 151 68 247 111 96 42 198 88 225 100 45 21 129 53 450 171 188 70 350 126 415 145 36 11 85 26 110 33 25 7 99 30 165 50 210 64 503 152 530 159 11 3 72 22 135 42 63 20 131 40 150 45 19 5 96 27 170 49 74 23 178 55 230 70 171 52 224 69 308 100 46 17 102 37 125 45 23 9 60 22 82 30 303 112 389 141 500 170 187 50 271 76 322 98 32 14 175 99 183 108 3 3 23 19 45 36 166 122 276 226 330 310 95 149 117 220 136 454 7 77 15 140 18 140 3 0 11 -4 17 -8z m-5085 -290 c11 -29 -1 -54 -41 -82 -28 -20 -31 -20 -60 -5 -36 19 -39 35 -6 35 28 0 56 33 56 66 0 11 3 24 7 27 9 10 34 -13 44 -41z m3039 14 c0 -22 -40 -66 -60 -66 -34 0 -33 21 1 50 37 32 59 38 59 16z m268 -43 c2 -7 -5 -16 -15 -19 -10 -3 -34 -12 -53 -19 -19 -7 -73 -27 -120 -45 -159 -60 -515 -203 -588 -236 -40 -19 -75 -34 -78 -34 -3 0 -31 -12 -62 -26 -31 -14 -70 -32 -87 -39 -16 -7 -55 -25 -85 -38 -30 -14 -118 -55 -195 -92 -77 -36 -158 -75 -180 -85 -22 -10 -92 -43 -156 -73 -64 -30 -127 -58 -140 -62 -13 -4 -28 -11 -34 -15 -5 -4 -98 -44 -205 -90 -107 -45 -208 -87 -225 -95 -16 -7 -66 -27 -110 -44 -44 -18 -92 -38 -107 -46 -14 -8 -35 -15 -45 -15 -10 0 -23 -4 -29 -9 -5 -5 -34 -18 -64 -29 -30 -11 -86 -32 -125 -47 -38 -14 -83 -31 -100 -36 -16 -5 -39 -13 -50 -18 -73 -33 -106 -43 -120 -38 -26 11 -29 37 -5 61 22 24 199 116 223 116 7 0 21 6 32 13 11 7 61 30 110 51 122 50 135 56 170 71 17 8 66 28 110 45 44 18 116 47 160 65 44 18 112 45 150 60 87 33 158 62 210 86 22 9 61 25 88 33 26 9 98 39 160 67 162 75 198 91 337 149 69 28 139 58 155 65 17 7 86 36 155 63 69 28 136 55 150 60 56 24 218 86 255 98 22 7 78 27 125 44 47 18 119 43 160 56 41 13 89 29 105 35 81 29 116 33 123 12z m627 -257 c100 -52 181 -100 183 -109 2 -9 -6 -18 -20 -22 -21 -7 -88 -36 -163 -70 -16 -7 -62 -27 -102 -44 l-71 -31 -222 0 c-153 0 -251 -5 -314 -15 -50 -9 -134 -23 -186 -31 -52 -9 -131 -22 -175 -30 -87 -15 -165 -18 -165 -6 0 4 24 18 53 32 28 13 102 47 162 76 87 41 334 148 470 203 11 5 31 13 45 19 147 65 289 121 305 121 11 0 101 -41 200 -93z m-2087 -178 c7 -7 12 -15 12 -20 0 -14 -40 -29 -60 -23 -27 8 -25 29 3 43 29 14 31 14 45 0z m-2860 -84 c287 -150 279 -146 534 -325 108 -77 370 -334 366 -359 -7 -36 -44 -20 -122 51 -217 202 -506 411 -706 513 -118 60 -155 82 -202 119 -31 25 -35 33 -27 48 5 11 14 19 20 19 6 0 67 -30 137 -66z m3576 -10 c27 -10 18 -19 -39 -43 -58 -24 -75 -22 -75 10 0 30 70 50 114 33z m1106 -201 c33 -9 59 -21 57 -27 -6 -17 -139 -56 -173 -51 -22 4 -39 -1 -57 -15 -14 -11 -32 -20 -40 -20 -9 0 -19 -4 -22 -10 -3 -5 -21 -10 -39 -10 -19 0 -47 -7 -62 -15 -16 -8 -37 -15 -47 -15 -9 0 -25 -4 -35 -9 -16 -9 -105 -35 -222 -67 -30 -9 -68 -20 -85 -26 -16 -5 -41 -12 -55 -15 -14 -3 -29 -9 -35 -13 -5 -4 -30 -11 -55 -15 -25 -4 -55 -13 -67 -21 -12 -8 -33 -14 -47 -14 -13 0 -50 -14 -82 -30 -62 -33 -74 -30 -88 17 -8 26 21 60 56 67 84 15 219 50 224 57 3 5 17 9 32 9 15 0 49 9 77 19 27 11 70 25 95 31 25 7 60 18 78 26 18 8 48 14 66 14 19 0 39 6 45 14 6 8 24 16 39 19 35 6 132 37 257 81 55 19 106 35 113 35 7 1 39 -7 72 -16z m-4699 -29 c6 -8 16 -14 22 -14 6 0 85 -37 176 -82 l166 -82 168 -166 c107 -106 167 -173 167 -186 0 -12 -11 -27 -26 -35 -25 -13 -28 -12 -73 37 -25 28 -64 73 -86 100 -52 65 -92 101 -200 188 -89 71 -166 126 -195 139 -8 4 -28 16 -45 26 -16 11 -54 32 -82 47 -56 29 -71 55 -28 47 13 -3 30 -11 36 -19z m-495 -183 c16 -5 63 -16 104 -26 69 -16 129 -42 270 -118 205 -111 188 -98 283 -207 41 -47 109 -120 151 -163 66 -67 75 -81 66 -97 -13 -24 -28 -25 -64 -6 -40 21 -73 54 -156 157 -85 107 -142 166 -174 180 -11 5 -30 15 -40 21 -97 63 -187 118 -216 131 -94 43 -211 87 -233 87 -30 0 -62 23 -53 38 9 14 23 15 62 3z m1944 -119 c0 -15 -38 -44 -49 -37 -17 10 -13 19 12 31 29 15 37 16 37 6z m675 -77 c-30 -25 -85 -34 -85 -15 0 13 58 38 90 39 l25 0 -30 -24z m-1677 -72 c27 -27 67 -74 91 -105 23 -32 45 -58 49 -58 12 -1 82 -67 82 -79 0 -6 -22 -22 -49 -36 -51 -25 -144 -37 -160 -19 -27 29 -111 139 -111 145 0 5 23 18 50 30 28 12 50 27 50 34 0 7 -16 33 -35 58 -34 45 -45 77 -25 77 5 0 31 -21 58 -47z m-603 -33 c36 -22 67 -40 69 -40 24 0 143 -101 233 -197 l112 -120 -47 -46 c-80 -78 -136 -87 -185 -31 -19 21 -69 54 -124 81 -51 26 -93 49 -93 53 0 4 -38 33 -85 65 -53 36 -85 65 -85 76 0 16 4 17 33 8 33 -11 81 -31 130 -55 16 -8 33 -14 39 -14 5 0 36 -20 68 -45 67 -52 87 -55 120 -20 l24 25 -35 36 c-46 48 -190 160 -245 191 -51 28 -56 35 -48 57 10 26 50 18 119 -24z m1184 -189 l53 -60 25 30 c30 35 60 38 72 5 19 -48 70 -48 122 -1 46 42 56 43 71 10 6 -14 18 -25 27 -25 9 0 46 -30 81 -66 77 -78 111 -98 154 -90 86 14 123 23 143 34 12 7 35 12 52 12 16 0 33 5 36 10 3 6 18 10 32 10 15 0 50 7 79 16 84 27 107 1 61 -67 -17 -25 -34 -37 -72 -46 -82 -22 -159 -47 -171 -55 -6 -5 -37 -17 -70 -28 -32 -11 -68 -27 -81 -35 -12 -8 -29 -15 -36 -15 -8 0 -27 -6 -43 -14 -16 -7 -65 -30 -109 -51 -161 -75 -347 -170 -357 -182 -6 -7 -16 -13 -22 -13 -6 0 -35 -16 -65 -35 -29 -19 -56 -35 -59 -35 -4 0 -38 -21 -76 -45 -38 -25 -74 -45 -80 -45 -6 0 -26 -14 -45 -30 -18 -17 -39 -30 -45 -30 -6 0 -19 -9 -29 -20 -9 -11 -23 -20 -31 -20 -7 0 -19 -7 -26 -15 -7 -8 -36 -29 -65 -45 -30 -17 -64 -42 -77 -55 -13 -14 -30 -25 -39 -25 -9 0 -24 -10 -35 -21 -10 -12 -46 -39 -79 -60 -33 -21 -69 -45 -80 -53 -48 -38 -105 -76 -113 -76 -5 0 -21 -13 -37 -30 -43 -45 -71 -38 -45 11 6 10 18 19 28 19 9 0 30 14 46 30 16 17 37 30 47 30 9 0 19 7 22 14 3 8 20 22 37 31 30 15 90 72 90 84 0 13 -123 247 -138 265 -14 15 -17 45 -20 165 -3 206 4 231 88 290 19 14 39 30 43 38 4 7 14 13 22 13 16 0 93 52 137 93 17 15 39 27 49 27 11 0 27 4 37 9 9 5 52 19 94 32 91 26 135 19 183 -31 37 -39 53 -38 95 5 l34 35 -22 45 c-12 25 -22 51 -22 57 0 18 41 58 59 58 9 0 40 -27 70 -59z m-1759 14 c184 -38 290 -78 472 -179 57 -31 132 -81 155 -103 7 -6 18 -13 25 -16 7 -2 10 -8 6 -12 -4 -4 -14 -3 -21 4 -48 39 -330 174 -416 198 -153 43 -202 53 -276 59 -101 8 -124 23 -89 58 19 19 6 20 144 -9z m250 -391 c100 -18 286 -76 350 -109 147 -74 166 -87 155 -105 -6 -9 -22 -3 -85 31 -38 21 -104 49 -115 49 -7 0 -18 6 -24 14 -6 8 -26 16 -44 19 -18 3 -77 15 -132 27 -241 52 -385 36 -549 -61 -132 -78 -166 -78 -171 2 -4 68 4 75 87 83 39 4 90 14 113 21 22 7 83 18 135 24 52 7 96 14 99 17 9 9 99 3 181 -12z m279 -186 c20 -11 54 -38 76 -59 37 -36 44 -38 110 -41 65 -3 71 -5 83 -31 8 -16 11 -39 8 -53 -5 -20 -13 -24 -43 -24 -21 0 -73 8 -116 17 -67 14 -89 15 -160 4 -45 -6 -121 -18 -169 -25 -48 -7 -92 -10 -98 -6 -6 4 -10 25 -8 46 l3 39 148 3 c173 3 176 6 92 87 -30 29 -55 55 -55 59 0 16 95 5 129 -16z m151 -267 c123 -23 182 -41 188 -58 5 -17 -96 -18 -167 -2 -36 7 -93 8 -193 1 -172 -13 -270 -34 -395 -88 -17 -8 -36 -14 -43 -14 -36 0 -103 -60 -195 -174 -55 -69 -109 -128 -119 -132 -14 -5 -26 1 -43 20 -32 37 -29 54 17 101 21 22 67 78 102 125 58 77 70 88 151 130 78 42 102 49 225 68 289 47 330 49 472 23z m-65 -162 c71 -17 136 -33 143 -35 35 -10 -51 -82 -316 -261 -92 -63 -255 -226 -307 -307 -40 -64 -63 -84 -69 -65 -2 8 -11 36 -20 63 -9 27 -16 59 -16 71 0 26 115 194 138 202 28 9 144 63 192 88 34 18 53 37 77 82 18 32 33 66 33 76 0 19 -8 18 -100 -9 -61 -19 -84 -17 -111 5 l-24 20 40 16 c65 28 128 55 160 70 40 18 33 19 180 -16z m1955 -1471 c108 -55 151 -144 130 -272 -17 -108 -142 -328 -248 -438 -66 -69 -76 -54 -96 136 -18 167 -34 207 -89 225 -59 19 -164 -29 -292 -132 -104 -85 -287 -284 -370 -403 -36 -51 -153 -174 -166 -174 -27 0 13 154 68 260 57 110 120 192 278 360 241 257 386 382 516 445 68 34 79 36 139 31 45 -4 85 -16 130 -38z"></path><path d="M6797 8094 c-41 -40 -101 -156 -112 -216 -9 -47 16 -126 58 -190 46 -69 134 -112 214 -106 73 6 198 64 248 115 41 42 62 105 46 139 -10 23 -11 23 -168 18 -140 -5 -162 -3 -193 13 -59 30 -65 74 -28 195 8 29 8 41 -2 53 -17 21 -21 20 -63 -21z"></path><path d="M8052 4518 c-10 -18 -28 -55 -38 -81 -23 -59 -53 -77 -183 -107 l-92 -22 -36 -74 c-20 -40 -58 -98 -85 -129 -55 -61 -57 -79 -15 -128 13 -15 35 -51 50 -80 15 -28 43 -79 62 -112 19 -33 46 -84 60 -112 l25 -53 95 0 c126 0 127 -1 60 -115 -56 -95 -60 -104 -48 -116 7 -7 31 4 76 35 35 25 67 46 70 46 9 0 96 60 102 70 3 4 23 11 45 15 47 8 84 35 106 78 15 28 15 31 -1 43 -12 9 -25 10 -42 3 -61 -23 -141 -65 -174 -91 -65 -50 -75 -32 -34 67 24 60 36 156 13 109 -15 -31 -46 -43 -83 -31 -16 6 -35 11 -42 13 -14 3 -63 78 -63 94 0 10 -120 215 -152 261 -18 25 -3 46 38 54 21 4 51 13 66 21 15 8 42 14 60 14 30 0 38 -7 76 -64 23 -36 60 -100 83 -143 35 -68 40 -85 36 -130 -4 -54 6 -66 31 -41 10 10 17 7 35 -13 37 -44 74 -52 153 -36 l69 14 0 39 c0 36 -3 41 -43 61 -75 37 -90 51 -116 105 -14 29 -34 69 -45 88 -10 19 -35 70 -55 112 -20 42 -41 80 -46 83 -24 15 -9 53 35 89 25 21 45 46 45 56 0 17 -66 140 -75 140 -2 0 -12 -15 -23 -32z"></path><path d="M6904 3891 c-12 -5 -25 -14 -28 -20 -9 -14 -134 -95 -196 -126 -56 -28 -62 -48 -30 -100 33 -54 150 -295 150 -310 0 -25 46 -36 96 -24 26 7 88 10 150 7 101 -5 107 -4 147 22 105 66 213 162 203 179 -5 8 -24 -3 -54 -30 -63 -56 -90 -65 -206 -72 -99 -6 -99 -5 -127 23 -19 18 -29 39 -29 58 0 25 15 41 118 122 197 157 225 192 165 206 -16 3 -76 20 -135 36 -122 33 -193 42 -224 29z m-4 -106 c23 -8 54 -15 67 -15 14 0 56 -9 94 -21 70 -21 83 -37 53 -61 -9 -7 -37 -31 -62 -53 -26 -22 -56 -48 -68 -58 -25 -21 -51 -14 -65 17 -5 11 -13 28 -18 36 -5 8 -12 22 -15 30 -4 8 -15 29 -26 45 -59 89 -48 111 40 80z"></path><path d="M5870 3843 c-39 -8 -50 -22 -50 -69 0 -31 4 -44 14 -44 18 0 56 47 56 68 0 9 7 24 17 34 17 19 14 20 -37 11z"></path><path d="M5882 3614 c-10 -5 -9 -11 6 -28 11 -11 24 -39 28 -60 l7 -39 -29 20 c-17 12 -36 33 -44 47 -7 14 -23 32 -35 40 -19 12 -24 11 -55 -14 -32 -27 -34 -30 -21 -54 18 -32 43 -41 71 -24 20 12 24 10 43 -14 23 -30 47 -94 39 -103 -3 -3 -16 -5 -29 -5 -27 0 -29 -9 -8 -36 8 -10 15 -25 15 -33 0 -8 6 -22 14 -30 7 -9 31 -48 51 -88 21 -40 46 -80 55 -88 10 -9 48 -21 85 -26 60 -8 72 -7 102 11 64 37 163 115 163 128 0 17 -35 15 -49 -2 -7 -8 -26 -18 -42 -21 -42 -10 -60 9 -126 138 -57 109 -98 157 -134 157 -10 0 -19 7 -19 15 0 8 -9 20 -20 27 -31 20 -24 29 18 22 30 -5 41 -2 56 15 18 20 18 21 -7 30 -34 13 -118 22 -135 15z m102 -242 c3 -5 2 -26 -1 -48 -5 -31 -8 -34 -14 -19 -17 44 -5 98 15 67z"></path><path d="M5810 3436 c0 -8 5 -18 10 -21 6 -3 10 3 10 14 0 12 -4 21 -10 21 -5 0 -10 -6 -10 -14z"></path><path d="M4992 3344 c-64 -68 -84 -85 -99 -79 -45 18 -52 17 -72 -16 -18 -29 -18 -36 -6 -65 16 -39 12 -44 -37 -44 -43 0 -47 -11 -20 -51 9 -14 38 -57 64 -96 26 -39 54 -73 62 -76 16 -6 56 -90 56 -118 0 -10 -4 -21 -10 -24 -5 -3 -10 -15 -10 -27 0 -17 4 -19 23 -13 12 4 37 9 55 12 18 3 34 9 37 13 2 4 24 4 47 -1 24 -4 62 -8 85 -9 40 0 44 3 127 97 57 64 83 100 76 107 -7 7 -22 -2 -46 -25 -33 -32 -39 -34 -106 -34 -80 1 -76 -3 -170 135 -134 196 -133 191 -95 232 35 38 58 41 150 22 46 -10 91 -15 99 -11 9 3 29 26 47 51 l31 46 -43 19 c-136 60 -148 58 -245 -45z"></path><path d="M4669 3277 c-28 -23 -89 -111 -89 -128 0 -14 11 -11 32 8 11 10 33 16 58 15 35 -2 42 2 53 26 6 15 22 38 34 52 30 32 29 36 -8 44 -46 9 -52 8 -80 -17z"></path><path d="M3705 2964 c-29 -69 -55 -148 -55 -167 0 -28 32 -17 48 16 7 15 18 27 25 28 7 1 57 2 113 2 83 2 98 0 87 -11 -7 -7 -13 -25 -13 -38 0 -34 34 -29 38 5 2 13 10 31 18 38 10 11 11 20 4 33 -15 28 -12 37 14 44 24 6 41 31 31 46 -6 9 -89 21 -180 26 -38 1 -80 6 -92 9 -18 6 -24 1 -38 -31z"></path><path d="M3445 2962 c-10 -33 22 -168 59 -246 18 -39 53 -93 77 -121 24 -27 47 -54 51 -60 4 -5 29 -36 55 -67 67 -79 139 -180 147 -206 4 -12 12 -20 17 -17 16 10 10 55 -13 94 -27 46 -20 58 47 90 55 26 138 27 215 2 l55 -17 -3 -65 c-4 -104 -4 -105 -87 -145 -41 -20 -81 -47 -90 -60 -22 -34 -92 -76 -114 -69 -16 5 -22 -6 -41 -67 -12 -40 -28 -89 -36 -108 -7 -19 -16 -45 -19 -58 -4 -12 -11 -20 -16 -17 -12 8 -12 141 0 183 13 45 -4 205 -26 240 -34 53 -86 118 -155 194 -85 93 -97 109 -98 127 0 7 -13 30 -30 51 -16 21 -30 44 -30 52 0 20 -20 37 -36 31 -10 -4 -12 7 -7 49 4 40 1 63 -11 86 -9 18 -19 32 -22 32 -3 0 -10 -13 -15 -30 -6 -16 -17 -30 -25 -30 -8 0 -19 -11 -24 -25 -12 -30 -37 -58 -67 -74 -12 -6 -23 -23 -25 -38 -3 -23 -9 -29 -40 -34 -79 -12 -118 -85 -118 -218 0 -76 3 -91 24 -120 l24 -32 1 77 c1 50 6 86 16 100 8 13 15 28 15 34 0 11 59 74 76 81 5 2 25 23 43 46 26 32 32 49 29 72 -4 24 -1 31 12 31 9 0 22 12 29 27 15 32 35 18 32 -24 -6 -116 0 -208 15 -230 28 -44 54 -63 84 -63 45 0 82 -43 88 -102 5 -53 21 -62 46 -26 15 21 17 22 33 5 17 -17 17 -19 1 -48 -14 -23 -15 -35 -7 -51 15 -27 6 -44 -35 -65 -49 -25 -86 -84 -86 -136 0 -23 4 -48 9 -56 13 -20 31 -4 31 29 0 27 47 80 72 80 24 0 72 -46 90 -89 18 -42 20 -63 16 -241 -3 -167 -1 -195 12 -198 10 -2 22 18 39 65 31 88 82 189 117 233 77 95 206 200 267 215 52 13 57 31 73 270 3 39 10 74 15 80 10 10 81 -6 134 -30 16 -8 57 -15 89 -17 l59 -3 20 65 c10 36 27 94 38 129 17 56 18 66 5 79 -12 12 -16 11 -29 -9 -8 -13 -21 -37 -28 -54 -18 -39 -62 -43 -144 -15 -208 73 -206 72 -330 74 l-120 3 0 43 c0 41 -21 69 -28 38 -2 -7 -10 -29 -17 -48 -6 -19 -22 -73 -35 -120 -13 -47 -28 -85 -33 -85 -20 0 -135 136 -142 168 -4 18 -12 31 -19 29 -22 -4 -49 17 -56 45 -3 16 -12 35 -19 43 -7 8 -20 35 -30 60 -10 25 -23 56 -29 70 -6 14 -12 44 -12 67 -1 50 -19 77 -30 45z m-10 -429 c-8 -45 -8 -45 -29 -37 -20 8 -20 18 0 49 24 37 37 31 29 -12z"></path><path d="M3900 2739 c0 -11 5 -17 10 -14 6 3 10 13 10 21 0 8 -4 14 -10 14 -5 0 -10 -9 -10 -21z"></path><path d="M3627 2714 c-11 -11 -8 -52 3 -59 10 -6 17 5 22 39 3 19 -13 32 -25 20z"></path><path d="M3323 2294 c-7 -18 20 -44 44 -44 18 0 16 17 -2 24 -8 3 -15 12 -15 21 0 20 -19 19 -27 -1z"></path><path d="M3282 2227 c-11 -13 -11 -92 1 -103 23 -23 55 62 37 97 -12 22 -23 24 -38 6z"></path><path d="M8300 720 c0 -5 7 -10 15 -10 8 0 15 5 15 10 0 6 -7 10 -15 10 -8 0 -15 -4 -15 -10z"></path></g></svg>