<svg xmlns:xhtml="http://www.w3.org/1999/xhtml" xmlns:dc="http://purl.org/dc/elements/1.1/" xmlns:cc="http://creativecommons.org/ns#" xmlns:rdf="http://www.w3.org/1999/02/22-rdf-syntax-ns#" xmlns:svg="http://www.w3.org/2000/svg" xmlns="http://www.w3.org/2000/svg" xmlns:sodipodi="http://sodipodi.sourceforge.net/DTD/sodipodi-0.dtd" xmlns:inkscape="http://www.inkscape.org/namespaces/inkscape" id="Layer_2" x="0px" y="0px" viewBox="0 0 1000 1000" style="enable-background:new 0 0 1000 1000;" xml:space="preserve" sodipodi:docname="Prime-Absolvers.svg" inkscape:version="1.0.2-2 (e86c870879, 2021-01-15)"><metadata></metadata><defs id="defs7"></defs><path d="M772,607.9c7.3-18.4,12.9-37.8,16.4-57.8l211.6-50.5l-211.6-50.5c-3.4-19.8-8.9-39-16.1-57.2l75.5-92.6L730,318.3  c-14.1-18-30.3-34.3-48.2-48.5l19-117.5l-92,75c-19-7.7-39-13.4-59.7-17L499,0.1l-50.2,210.3c-20.2,3.5-39.6,9.1-58.1,16.4  l-91.4-74.5l18.8,116.3c-18.4,14.5-35.1,31.1-49.5,49.4l-116.3-18.8l74.4,91.2c-7.5,18.8-13.2,38.5-16.7,59l-209.9,50l209.9,50  c3.6,20.7,9.3,40.6,17,59.6l-74.6,91.5l116.9-18.9c14.4,18.1,30.9,34.5,49.1,48.7l-19,117.1l92.2-75.1c18.4,7.3,37.7,12.8,57.6,16.2  l50.4,211.2l50.4-211.3c20.2-3.5,39.7-9.1,58.3-16.6l92.7,75.6l-19.1-118.3c17.7-14.1,33.7-30.1,47.8-47.8l118.4,19.2L772,607.9z   M309.2,349.2l122.2,122.2H258.5C263.8,425.5,281.9,383.6,309.2,349.2z M258.5,527.8h172.9L309.2,650  C281.9,615.6,263.8,573.6,258.5,527.8z M471.2,740.3c-45.9-5.3-87.8-23.3-122.2-50.5l122.2-122.2V740.3z M471.2,431.6L349,309.3  c34.4-27.2,76.4-45.2,122.2-50.5V431.6z M739.9,471.4H567.4l122-122C716.6,383.8,734.6,425.6,739.9,471.4z M527.6,258.9  c45.8,5.3,87.7,23.4,122,50.7l-122,122V258.9z M527.6,740.3V567.6l122,122C615.3,716.9,573.4,735,527.6,740.3z M689.4,649.8  l-122-122h172.5C734.6,573.5,716.6,615.4,689.4,649.8z" id="path2" style="fill:#ffffff"></path></svg>