<svg xmlns:dc="http://purl.org/dc/elements/1.1/" xmlns:cc="http://creativecommons.org/ns#" xmlns:rdf="http://www.w3.org/1999/02/22-rdf-syntax-ns#" xmlns:svg="http://www.w3.org/2000/svg" xmlns="http://www.w3.org/2000/svg" xmlns:sodipodi="http://sodipodi.sourceforge.net/DTD/sodipodi-0.dtd" xmlns:inkscape="http://www.inkscape.org/namespaces/inkscape" width="1000.000000pt" height="1000.000000pt" viewBox="0 0 1000.000000 1000.000000" preserveAspectRatio="xMidYMid meet" id="svg26" sodipodi:docname="IRONWARRIOR.svg" inkscape:version="1.0.2-2 (e86c870879, 2021-01-15)"><metadata></metadata><defs id="defs30"></defs><g transform="translate(0.000000,1000.000000) scale(0.100000,-0.100000)" fill="#000000" stroke="none" id="g24" style="fill:#ffffff"><path d="M4712 7633 l3 -2148 215 0 215 0 3 2148 2 2147 -220 0 -220 0 2 -2147z" id="path2" style="fill:#ffffff"></path><path d="M4300 9566 c-700 -265 -1185 -473 -1674 -718 l-199 -100 6 -1391 7 -1392 -220 -245 c-210 -232 -219 -245 -203 -261 10 -10 101 -88 203 -173 173 -146 186 -155 201 -138 9 9 123 137 253 284 l237 267 97 -34 c53 -19 508 -178 1010 -354 l912 -319 913 319 c501 176 956 335 1009 354 l97 34 237 -267 c130 -147 244 -275 253 -284 15 -17 28 -8 201 138 102 85 193 163 203 173 16 16 7 29 -203 261 l-220 245 7 1392 6 1391 -199 100 c-494 247 -1038 480 -1722 736 -156 58 -285 106 -288 106 -2 0 -4 -965 -4 -2145 l0 -2145 -290 0 -290 0 0 2145 c0 1180 -3 2145 -7 2145 -5 -1 -154 -56 -333 -124z m-1631 -952 c25 -21 31 -33 31 -66 0 -53 -14 -77 -57 -94 -99 -42 -180 80 -104 157 39 38 87 39 130 3z m4652 -3 c76 -77 -5 -199 -104 -157 -43 17 -57 41 -57 94 0 33 6 45 31 66 43 36 91 35 130 -3z m-4650 -1110 c51 -52 36 -133 -30 -161 -98 -40 -177 85 -102 161 22 21 39 29 66 29 27 0 44 -8 66 -29z m4650 0 c51 -52 36 -133 -30 -161 -98 -40 -177 85 -102 161 22 21 39 29 66 29 27 0 44 -8 66 -29z m-4650 -1110 c23 -23 29 -38 29 -71 0 -33 -6 -48 -29 -71 -33 -33 -67 -37 -111 -14 -35 18 -50 43 -50 85 0 41 14 66 48 84 43 24 80 20 113 -13z m4629 14 c35 -18 50 -43 50 -85 0 -42 -15 -67 -50 -85 -44 -23 -78 -19 -111 14 -23 23 -29 38 -29 71 0 33 6 48 29 71 33 33 67 37 111 14z" id="path4" style="fill:#ffffff"></path><path d="M2565 8585 c-30 -29 -32 -58 -5 -85 40 -40 110 -14 110 41 0 30 -9 43 -37 58 -31 16 -41 14 -68 -14z" id="path6" style="fill:#ffffff"></path><path d="M7225 8598 c-27 -15 -35 -28 -35 -59 0 -54 70 -79 110 -39 27 27 25 56 -5 85 -27 28 -40 30 -70 13z" id="path8" style="fill:#ffffff"></path><path d="M2565 7475 c-44 -43 -21 -105 39 -105 64 0 90 70 40 109 -34 27 -50 26 -79 -4z" id="path10" style="fill:#ffffff"></path><path d="M7216 7479 c-50 -40 -24 -109 42 -109 33 0 62 29 62 63 0 21 -43 67 -63 67 -8 0 -26 -9 -41 -21z" id="path12" style="fill:#ffffff"></path><path d="M2583 6379 c-42 -16 -54 -63 -25 -99 22 -27 65 -29 92 -5 50 45 -4 128 -67 104z" id="path14" style="fill:#ffffff"></path><path d="M7240 6382 c-74 -23 -60 -124 17 -124 29 0 63 33 63 61 0 39 -45 74 -80 63z" id="path16" style="fill:#ffffff"></path><path d="M2135 8231 l-198 -178 2 -174 c2 -261 31 -2186 34 -2244 l2 -49 182 199 182 200 1 1213 c0 666 -2 1212 -4 1212 -2 0 -93 -80 -201 -179z" id="path18" style="fill:#ffffff"></path><path d="M7520 7198 l1 -1213 182 -200 182 -199 2 49 c3 58 32 1983 34 2244 l2 174 -198 178 c-108 99 -199 179 -201 179 -2 0 -4 -546 -4 -1212z" id="path20" style="fill:#ffffff"></path><path d="M1759 5213 c-89 -109 -168 -206 -176 -215 -14 -15 44 -81 608 -695 342 -373 632 -689 645 -702 l22 -24 124 86 123 86 5 -1129 5 -1129 905 -660 c498 -363 907 -661 910 -661 3 0 412 298 910 661 l905 660 5 1129 5 1129 123 -86 124 -86 22 24 c13 13 303 329 645 702 564 614 622 680 608 695 -8 9 -87 106 -176 215 -89 108 -164 197 -166 197 -2 0 -110 -90 -241 -200 l-238 -201 -70 78 c-39 43 -94 102 -122 132 l-51 54 -552 -282 -552 -283 -52 22 c-29 13 -158 75 -287 140 -129 65 -259 128 -287 140 l-52 22 -251 -87 -250 -88 -250 88 -251 87 -52 -22 c-28 -12 -158 -75 -287 -140 -129 -65 -258 -127 -287 -140 l-52 -22 -552 283 -552 282 -51 -54 c-28 -30 -83 -89 -122 -132 l-70 -78 -238 201 c-131 110 -239 200 -241 200 -2 0 -77 -89 -166 -197z m3224 -570 c80 -134 213 -439 262 -602 l7 -24 -33 20 c-19 11 -91 55 -161 98 l-128 78 -127 -78 c-71 -43 -143 -87 -162 -98 l-33 -20 7 24 c23 78 115 310 162 409 54 115 142 270 153 270 3 0 27 -35 53 -77z m-313 -2558 l0 -1335 -60 0 -60 0 0 1329 c0 1054 3 1330 13 1334 6 3 33 6 60 6 l47 1 0 -1335z m624 1329 c14 -6 16 -132 16 -1335 l0 -1329 -60 0 -60 0 0 1335 0 1335 44 0 c24 0 51 -3 60 -6z m-1204 -1184 l0 -1120 -60 0 -60 0 0 1114 0 1115 38 4 c20 2 47 4 60 5 l22 2 0 -1120z m1778 1110 l22 0 0 -1115 0 -1115 -60 0 -60 0 0 1121 0 1122 38 -7 c20 -3 47 -6 60 -6z m-2368 -955 l0 -875 -60 0 -60 0 0 869 0 870 33 4 c17 2 44 5 60 5 l27 2 0 -875z m2934 869 l46 -7 0 -868 0 -869 -60 0 -60 0 0 875 c0 731 2 875 14 875 7 0 34 -3 60 -6z" id="path22" style="fill:#ffffff"></path></g></svg>