<svg xmlns:xhtml="http://www.w3.org/1999/xhtml" xmlns:dc="http://purl.org/dc/elements/1.1/" xmlns:cc="http://creativecommons.org/ns#" xmlns:rdf="http://www.w3.org/1999/02/22-rdf-syntax-ns#" xmlns:svg="http://www.w3.org/2000/svg" xmlns="http://www.w3.org/2000/svg" xmlns:sodipodi="http://sodipodi.sourceforge.net/DTD/sodipodi-0.dtd" xmlns:inkscape="http://www.inkscape.org/namespaces/inkscape" id="Layer_2" x="0px" y="0px" viewBox="0 0 1000 1000" style="enable-background:new 0 0 1000 1000;" xml:space="preserve" sodipodi:docname="32nd-Thetoid-Eagles.svg" inkscape:version="1.0.2-2 (e86c870879, 2021-01-15)"><metadata></metadata><defs id="defs13"></defs><g id="g8" style="fill:#ffffff">	<path d="m 155.48,580.5 c 28.95,37.17 53.33,74.82 77.28,111.62 8.59,-147.04 182.46,-111.62 173.87,-35.42 26.92,-16.2 53.45,-30.06 78.35,-34.34 L 366.91,396.97 C 313.06,453.92 233.9,513.15 155.48,580.5 Z" id="path2" style="fill:#ffffff"></path>	<polygon points="673.14,534.44 613.9,568.65 580.05,510.02 685.38,449.21 698.9,354.98 539.11,447.24 505.26,388.61 711.14,269.75 725.39,170.5 399.11,374.43 632.01,820.91 " id="polygon4" style="fill:#ffffff"></polygon>	<path d="M 500,2 C 224.96,2 2,224.96 2,500 2,775.04 224.96,998 500,998 775.04,998 998,775.04 998,500 998,224.96 775.04,2 500,2 Z m 0,917.65 C 268.23,919.65 80.35,731.77 80.35,500 80.35,268.23 268.23,80.35 500,80.35 731.77,80.35 919.65,268.23 919.65,500 919.65,731.77 731.77,919.65 500,919.65 Z" id="path6" style="fill:#ffffff"></path></g></svg>