<svg xmlns="http://www.w3.org/2000/svg" viewBox="0 40 200 170" fill="currentColor"><path style="fill:#ffffff" d="m 31.195507,205.39443 c -3.126478,-1.31369 -7.233698,-4.35907 -6.632603,-4.91787 0.126653,-0.11774 1.718559,-0.63363 3.53757,-1.14642 3.825843,-1.07853 5.864451,-1.81617 7.080712,-2.56204 l 0.863003,-0.52923 -0.796858,-1.10003 c -1.067043,-1.47301 -1.030383,-1.81391 0.19533,-1.81638 2.560374,-0.005 6.821254,-1.06183 8.662653,-2.14828 l 0.964248,-0.56892 -0.943919,-0.96666 c -0.519156,-0.53167 -0.943919,-1.03686 -0.943919,-1.12265 0,-0.0858 1.041797,-0.23653 2.315104,-0.33497 3.005049,-0.23232 4.901705,-0.77827 5.946368,-1.71168 l 0.84099,-0.75143 -0.754548,-0.64903 -0.754548,-0.64904 2.487171,-1.21421 c 2.653861,-1.2956 4.747734,-2.77917 10.994645,-7.79007 8.431321,-6.7631 12.12222,-9.2622 17.87693,-12.10441 l 3.89482,-1.92363 -0.58753,-0.53944 c -1.01524,-0.93214 -4.97561,-2.90013 -7.7998,-3.87587 -5.656262,-1.95421 -10.395033,-2.25327 -13.771217,-0.8691 -5.095554,2.08907 -9.188488,6.96448 -11.418934,13.60195 -0.427275,1.27151 -0.890638,2.34976 -1.029694,2.39611 -0.139057,0.0464 -0.710436,-0.47734 -1.269731,-1.16377 -1.974904,-2.42381 -2.802404,-3.27749 -3.176989,-3.27749 -0.769285,0 -1.775953,1.56573 -4.21853,6.56131 -1.438959,2.94297 -2.632647,5.07521 -2.80844,5.01662 -0.598979,-0.19966 -1.329138,-1.48859 -1.78287,-3.14724 -0.280232,-1.02441 -0.617521,-1.71463 -0.861279,-1.7625 -0.561875,-0.11034 -1.794704,1.91063 -3.53567,5.79602 -0.807969,1.80317 -1.574138,3.3855 -1.702597,3.51627 -0.423154,0.43077 -1.460063,-0.54109 -2.341267,-2.1944 -0.749765,-1.4067 -0.959747,-1.61525 -1.626414,-1.61525 -1.539526,0 -3.797486,3.28088 -4.916471,7.14375 -0.447646,1.54533 -0.692486,2.00226 -1.106616,2.0652 -0.724139,0.11005 -1.475514,-1.01173 -2.047862,-3.05738 -0.336601,-1.20306 -0.585899,-1.65365 -0.91492,-1.65365 -0.802922,0 -2.697041,4.11758 -3.700784,8.04505 l -0.467012,1.82733 -1.200526,-1.52959 c -0.66029,-0.84128 -1.917274,-2.73514 -2.793298,-4.20859 -5.7633128,-9.69371 -7.6850778,-20.63402 -5.3041418,-30.19566 0.542342,-2.178 2.00134,-5.68854 2.364186,-5.68854 0.112396,0 0.283806,0.80367 0.38091,1.78594 0.358078,3.62214 0.992882,5.09323 2.1978258,5.09323 0.9186,0 1.84184,-0.9526 6.024554,-6.21617 4.324922,-5.44251 8.575931,-9.97259 13.02583,-13.88093 l 3.752771,-3.29605 v -1.23335 c 0,-1.88373 0.731966,-5.67041 1.592707,-8.23955 1.964164,-5.86263 5.343274,-10.79963 12.14739,-17.74775 3.770114,-3.84991 3.912331,-3.91811 3.974201,-1.906 0.01342,0.43657 0.254097,1.29977 0.534827,1.91823 0.634351,1.39751 1.262543,1.45961 3.016039,0.29814 2.896853,-1.9188 9.625253,-9.290623 12.970877,-14.211263 2.734347,-4.02159 4.377055,-7.96097 4.389216,-10.52577 0.0044,-0.92209 0.626396,-1.45772 19.053909,-16.40741 24.898224,-20.19918 32.570294,-26.35338 32.696214,-26.22746 0.0635,0.0635 -0.54118,1.45318 -1.34365,3.08825 -2.26342,4.61188 -3.99004,8.71295 -5.33431,12.6701 -1.03319,3.04143 -1.25117,4.0341 -1.35546,6.17277 -0.1984,4.06828 0.75083,6.63938 3.01279,8.16058 3.96774,2.66834 13.02043,-1.28284 26.56401,-11.59426 5.46626,-4.16175 12.40759,-10.09744 15.33477,-13.11313 0.64876,-0.66838 1.27611,-1.21523 1.39411,-1.21523 0.6344,0 -1.03645,3.91226 -7.0059,16.40416 -6.67258,13.96332 -9.31835,20.17805 -11.65822,27.38438 -2.91005,8.96237 -3.03105,15.442383 -0.31372,16.801043 1.11526,0.55763 8.48449,0.50264 12.7,-0.0948 7.10002,-1.0062 17.68235,-3.02961 28.04583,-5.36256 11.65037,-2.622643 14.7649,-3.291183 14.98733,-3.217033 0.12786,0.0426 -0.45355,0.61162 -1.29201,1.26446 -0.83847,0.65283 -3.66761,2.969663 -6.28698,5.148523 -15.5506,12.93535 -24.12106,21.57753 -24.65374,24.86002 -0.41915,2.58291 3.9758,4.3468 14.20269,5.70018 5.5197,0.73046 5.92675,0.80703 5.65686,1.06407 -0.36456,0.34722 -8.58053,3.53107 -12.53602,4.85797 -7.25763,2.43461 -16.27488,4.7778 -28.17813,7.32224 -15.84457,3.38695 -21.81989,5.30371 -24.8508,7.97163 -1.6115,1.41849 -2.26899,2.87781 -2.26899,5.03605 0,1.41076 0.12257,1.91224 0.66146,2.70634 0.94863,1.39789 0.85735,2.06522 -0.43366,3.17028 -1.44119,1.2336 -5.08181,2.72983 -14.25072,5.85679 -8.682684,2.96114 -15.172924,5.41693 -20.637504,7.80887 -5.8954,2.58051 -20.086703,9.81288 -32.67604,16.6528 -11.920229,6.47639 -15.940373,8.45554 -17.552097,8.64102 -0.639639,0.0736 -1.490264,-0.10765 -2.503912,-0.53357 z M 9.4712992,170.40046 c 0.200562,-0.85248 0.366518,-2.52849 0.368791,-3.72447 0.0047,-2.44827 -0.29525,-2.6566 -1.35527,-0.94146 -0.705718,1.14188 -0.963751,4.15671 -0.501939,5.86458 0.281847,1.04232 0.355391,1.11969 0.718864,0.75622 0.222693,-0.2227 0.568992,-1.10238 0.769554,-1.95487 z M 44.901516,131.66263 c 5.409609,-4.33494 8.863541,-8.3549 8.863541,-10.31609 0,-1.72393 -1.048761,-2.26555 -2.725118,-1.40734 -3.664473,1.87602 -8.048393,8.20427 -9.286269,13.40485 -0.155586,0.65366 -0.12064,0.711 0.295053,0.48412 0.259348,-0.14154 1.543105,-1.11604 2.852793,-2.16554 z" id="path1"></path></svg>
