<svg xmlns="http://www.w3.org/2000/svg" xmlns:svg="http://www.w3.org/2000/svg" width="98.042519mm" height="96.165321mm" viewBox="0 0 98.042519 96.165321" id="svg1" xml:space="preserve"><defs id="defs1"></defs><g id="layer1" transform="translate(-35.00179,-53.943602)"><path style="fill:currentcolor" d="m 79.07533,149.7344 -0.14372,-0.37453 0.0859,-0.74995 0.0859,-0.74996 h 4.49792 4.49792 l 0.0814,1.12448 0.0814,1.12448 h -4.52144 -4.52143 z m -1.10734,-3.09851 0.0993,-0.29803 2.89927,-0.72855 2.89927,-0.72855 2.43306,-0.69321 2.43307,-0.69321 h 0.4112 0.41121 v 1.71979 1.71979 H 83.71148 77.8686 Z m -0.12399,-1.75249 -0.1,-0.19844 0.11041,-2.28843 0.11042,-2.28843 2.81821,-0.8165 2.81821,-0.8165 2.84716,-0.67921 2.84715,-0.67922 0.2617,0.16174 0.2617,0.16174 v 1.40652 1.40652 l -0.15842,0.7921 -0.15842,0.7921 -3.34731,0.86758 -3.34731,0.86758 -2.33896,0.75464 -2.33896,0.75465 h -0.0928 -0.0928 z m 0.12453,-8.56668 0.0765,-2.47967 1.45521,-0.43848 1.45521,-0.43848 4.09481,-1.07587 4.09482,-1.07588 0.21604,0.21604 0.21603,0.21603 -0.0775,2.21831 -0.0775,2.21831 -1.7198,0.46569 -1.71979,0.46568 -3.60076,0.92344 -3.60077,0.92343 -0.44448,0.17056 -0.44449,0.17057 z m -0.11477,-3.98582 -0.12726,-0.34594 0.12447,-2.28033 0.12448,-2.28034 0.96083,-0.30846 0.96084,-0.30846 4.74173,-1.32213 4.74174,-1.32214 0.21642,0.33906 0.21642,0.33905 -0.12951,0.35237 -0.12951,0.35237 v 1.93423 1.93424 l -1.91823,0.46332 -1.91823,0.46332 -3.43958,1.00103 -3.43959,1.00102 -0.42887,0.16686 -0.42888,0.16686 z m 0.059,-8.15945 v -1.84378 h 5.82083 5.82084 v 0.25439 0.25438 l -1.12448,0.28852 -1.12448,0.28852 -4.36563,1.19289 -4.36562,1.19288 -0.33073,0.10799 -0.33073,0.10799 z m -21.11094,-3.62189 -0.87031,-0.10905 0.0766,-2.16528 0.0766,-2.16527 5.15938,-0.16325 5.15937,-0.16326 1.52136,-0.0352 1.52135,-0.0352 v -0.4887 -0.48869 l -3.10885,-0.16701 -3.10886,-0.16701 -7.73906,0.16917 -7.73906,0.16917 v -0.42604 -0.42605 l 0.92604,-0.70632 0.92604,-0.70633 v -0.30185 -0.30185 l -0.92032,-0.79122 -0.92033,-0.79123 -0.006,-0.29731 -0.006,-0.29732 7.73907,-0.0207 7.73906,-0.0207 3.10885,-0.0127 3.10886,-0.0128 v -0.82376 -0.82377 l -13.86184,0.147 -13.86183,0.147 -0.16647,-0.16646 -0.16646,-0.16647 0.98512,-1.00885 0.98512,-1.00886 -0.97974,-1.00334 -0.97974,-1.00334 v -0.31958 -0.31957 h 14.02292 14.02292 v -0.66146 -0.66146 H 52.24766 35.04974 v -0.18728 -0.18728 l 0.97974,-1.00334 0.97974,-1.003348 -1.00372,-1.0279 -1.00371,-1.02789 0.22241,-0.12557 0.22242,-0.12556 19.57916,0.029 19.57917,0.029 0.018,8.863538 0.018,8.86354 0.0481,0.33073 0.0481,0.33073 h 1.46514 1.46514 l -0.0761,2.44739 -0.0761,2.4474 -9.92188,0.0254 -9.92187,0.0254 z m 33.54636,-2.17744 v -2.36804 l 1.52135,-0.0793 1.52136,-0.0794 0.01,-5.55625 0.01,-5.55625 0.0563,-3.7909 0.0563,-3.790908 12.63385,0.0477 12.63386,0.0477 7.08956,0.14792 7.08957,0.14792 -0.9917,1.0156 -0.9917,1.01559 1.02869,1.053478 1.02869,1.05348 -0.15576,0.15576 -0.15577,0.15577 -17.0911,-0.0276 -17.09111,-0.0276 v 0.67042 0.67041 l 2.3151,0.0231 2.31511,0.0231 11.5749,0.0645 11.57491,0.0645 0.18186,0.18186 0.18186,0.18186 -1.02869,1.05348 -1.02869,1.05347 0.97974,1.00335 0.97973,1.00334 v 0.22133 0.22133 l -12.23698,-0.19479 -12.23697,-0.19478 -1.78594,0.19156 -1.78594,0.19156 v 0.60195 0.60195 l 4.82865,0.18519 4.82864,0.18519 6.01953,-0.0904 6.01953,-0.0904 -2.6e-4,0.25343 -2.6e-4,0.25343 -0.98042,1.00404 -0.98042,1.00404 0.98042,0.92477 0.98042,0.92476 v 0.26516 0.26516 H 109.39818 98.55026 v 0.52917 0.52917 l 0.0662,0.0545 0.0661,0.0545 6.61459,0.14395 6.61458,0.14394 0.0764,2.31511 0.0764,2.3151 H 101.20637 90.34816 Z m -8.40052,1.90633 -2.4474,-0.0873 V 108.0743 95.957452 l 1.89521,-3.4175 1.8952,-3.41749 1.43506,-2.59408 1.43506,-2.59408 0.30776,0.0971 0.30775,0.0971 2.69763,5.4074 2.69763,5.4074 0.0143,0.28602 0.0144,0.28602 -0.68805,0.36823 -0.68806,0.36824 -0.39189,-0.52197 -0.39189,-0.52196 -1.53286,-3.175 -1.53285,-3.175 -0.37464,-0.48275 -0.37464,-0.48275 -0.35285,0.6593 -0.35284,0.6593 1.78481,3.52762 1.7848,3.52761 0.0341,11.849758 0.0341,11.84975 -0.39687,0.25088 -0.39688,0.25088 -1.98437,-0.0509 -1.98438,-0.0509 z m -4.89479,-25.089608 -0.72761,-0.39474 v -0.22643 -0.22643 l 2.01576,-3.66773 2.01576,-3.66772 2.04628,-3.57187 2.04628,-3.57188 1.54083,-2.91041 1.54083,-2.91042 1.40833,-2.45631 1.40833,-2.45631 0.42319,-0.64587 0.42318,-0.64586 0.7677,0.39699 0.7677,0.39699 v 0.14268 0.14267 l -1.36731,2.56251 -1.36732,2.56251 -2.02836,3.43958 -2.02837,3.43959 -1.24028,2.62724 -1.24028,2.62725 -1.27393,2.13525 -1.27394,2.13526 -1.3842,2.57968 -1.38421,2.57969 -0.18038,-0.0106 -0.18038,-0.0106 z m 16.01865,-2.02511 -0.26245,-0.3371 -2.68566,-5.39676 -2.68565,-5.39675 v -0.38825 -0.38825 l 1.22855,-2.28479 1.22855,-2.28479 1.19889,-2.11666 1.19888,-2.11667 0.50559,-0.73405 0.50559,-0.73405 4.27687,0.0726 4.27687,0.0726 v 11.1125 11.1125 l -4.26179,0.0725 -4.26179,0.0725 z m 9.88939,0.12125 -0.11272,-0.19377 -0.004,-10.91406 -0.004,-10.91407 h 0.15619 0.15619 l 1.0064,0.69745 1.00641,0.69744 v 9.71844 9.71844 l -1.0456,0.69195 -1.04561,0.69195 z m -36.4432,-5.94846 -0.018,-5.88698 -0.0776,-1.19062 -0.0776,-1.19063 0.13612,-4.16719 0.13612,-4.16718 h 4.18232 4.18233 l 0.28545,0.33073 0.28546,0.33073 2.74395,5.52974 2.74395,5.52975 -0.3039,0.68796 -0.3039,0.68796 -1.80857,3.30729 -1.80858,3.3073 -0.83011,1.38906 -0.83011,1.38906 H 70.84532 66.5356 Z m -2.41966,4.82227 -0.97069,-0.80013 -0.0175,-9.61452 -0.0175,-9.61453 1.05451,-0.69785 1.05452,-0.69784 h 0.13796 0.13797 v 11.1125 11.1125 h -0.2043 -0.2043 z m 14.72342,-17.52227 -2.77424,-5.62239 0.57594,-0.47172 0.57595,-0.47172 0.29067,0.0843 0.29068,0.0843 1.11818,2.23947 1.11818,2.23948 0.98829,1.79794 0.9883,1.79794 0.45278,-0.60026 0.45278,-0.60027 -1.70317,-3.34945 -1.70317,-3.34945 -0.0623,-1.02323 -0.0623,-1.02322 h 4.7625 4.7625 l 0.0838,0.72825 0.0838,0.72824 -2.4393,4.43113 -2.4393,4.43113 -1.02973,1.78593 -1.02974,1.78594 H 81.8592 81.59582 Z m 2.33244,-11.46681 -2.97656,-2.79925 v -0.31289 -0.31289 l 2.90956,-2.90054 2.90956,-2.90054 2.13699,2.1113 2.13698,2.11131 0.80618,1.00439 0.80619,1.00439 -2.87617,2.89699 -2.87617,2.89699 z" id="path1"></path></g></svg>