<svg xmlns:inkscape="http://www.inkscape.org/namespaces/inkscape" xmlns:sodipodi="http://sodipodi.sourceforge.net/DTD/sodipodi-0.dtd" xmlns="http://www.w3.org/2000/svg" xmlns:svg="http://www.w3.org/2000/svg" width="54.1073mm" height="54.433327mm" viewBox="0 0 54.107298 54.433325" id="svg1" xml:space="preserve" inkscape:version="1.3.2 (1:1.3.2+202311252150+091e20ef0f)" sodipodi:docname="lyanden.svg">  <defs id="defs1"></defs>  <g inkscape:label="Calque 1" inkscape:groupmode="layer" id="layer1" transform="translate(-101.01252,-110.91715)">    <path style="fill:#currentcolor" d="m 123.63435,165.04735 c -1.77428,-0.52935 -2.64583,-0.90918 -2.64583,-1.15308 0,-0.11989 0.40313,-0.36375 0.89584,-0.54192 1.54432,-0.55843 3.24564,-2.2797 3.74789,-3.79183 0.77116,-2.32176 0.4543,-4.2858 -1.31343,-8.14125 -1.87119,-4.08106 -2.3712,-6.08818 -2.19303,-8.80307 0.28024,-4.27005 2.87051,-7.45557 8.32158,-10.23385 1.34448,-0.68524 1.39854,-0.48916 0.42856,1.55431 -0.46405,0.97763 -0.70095,1.9394 -0.72183,2.93059 -0.0377,1.78947 0.92371,3.87227 3.83776,8.31419 2.16244,3.29623 3.73531,6.31781 4.20071,8.0698 0.441,1.66017 0.13051,4.24584 -0.7087,5.90195 -1.00305,1.97941 -3.24287,4.1915 -5.30268,5.237 -1.63494,0.82985 -1.96406,0.89868 -4.55918,0.9534 -1.74256,0.0367 -3.2459,-0.0749 -3.98766,-0.29624 z m -19.49543,-0.0824 c 0.14432,-0.24121 2.08215,-5.44659 4.50847,-12.1106 0.95369,-2.61937 3.34203,-9.04348 5.30742,-14.27579 1.96539,-5.23231 3.52418,-9.56256 3.46397,-9.62277 -0.10428,-0.10428 -7.1348,1.14362 -8.1678,1.44976 -0.46847,0.13884 -0.48589,-0.0344 -0.35378,-3.51925 l 0.13895,-3.66528 1.01525,0.0767 c 0.55838,0.0422 2.66418,0.25855 4.67955,0.48082 2.01538,0.22228 3.69578,0.36636 3.73422,0.32019 0.17276,-0.20749 2.5527,-7.15405 2.47655,-7.22854 -0.076,-0.0743 -15.84572,1.71676 -18.6594,2.1193 l -1.1114,0.159 -0.0792,-4.11567 -0.0792,-4.11567 27.05365,3.8e-4 27.05365,3.8e-4 v 4.05228 4.05228 l -9.04783,-1.13397 c -4.9763,-0.62369 -9.0927,-1.08909 -9.14756,-1.03424 -0.0548,0.0549 0.45608,1.70534 1.13541,3.66774 l 1.23515,3.56799 0.9671,-0.10086 c 3.8318,-0.39961 6.54064,-0.63581 7.29176,-0.63581 h 0.87994 l 0.1353,3.37344 c 0.0744,1.85539 0.0984,3.4151 0.0534,3.46603 -0.0451,0.0509 -1.66745,-0.16611 -3.60531,-0.48229 -4.47646,-0.73036 -4.32821,-0.71629 -4.25562,-0.40405 0.10725,0.46132 2.84253,7.989 5.0954,14.02292 1.96282,5.25707 3.72007,10.06234 6.6278,18.12396 0.55113,1.52797 1.08456,2.98648 1.18541,3.24115 0.17052,0.43057 -0.14915,0.46302 -4.56222,0.46302 h -4.74559 l -1.2212,-4.56407 c -1.51968,-5.67958 -4.69087,-17.73451 -6.73398,-25.59844 l -1.54666,-5.95312 -5.84584,-0.0711 -5.84583,-0.0711 -0.12642,0.60029 c -0.15427,0.73261 -5.43384,21.35718 -7.57002,29.57216 l -1.54801,5.95313 -4.95384,0.072 c -2.72461,0.0396 -4.89882,-0.0199 -4.83157,-0.13229 z m 29.23084,-41.12965 c -0.0689,-0.19233 -0.64759,-1.86773 -1.2859,-3.72312 l -1.16057,-3.37344 h -2.65371 -2.65371 l -0.85847,3.38262 c -0.47216,1.86044 -0.85847,3.50399 -0.85847,3.65234 0,0.17073 1.76104,0.29571 4.79809,0.34051 3.88645,0.0573 4.77426,0.004 4.67274,-0.27891 z" id="path1" sodipodi:nodetypes="cccsssssssssssscccsssssccsscscccccccscscsscccsssssscsscccsscscccscccsscc"></path>  </g></svg>