<svg xmlns="http://www.w3.org/2000/svg" width="199.000000pt" height="214.000000pt" viewBox="0 0 199.000000 214.000000" preserveAspectRatio="xMidYMid meet"><g transform="translate(0.000000,214.000000) scale(0.100000,-0.100000)" fill="#ffffff" stroke="none"><path d="M361 1970 c-4 -3 -7 -61 -6 -130 l0 -125 38 -3 c34 -3 37 -6 37 -33 0 -16 1 -32 3 -36 1 -5 -70 -10 -158 -13 l-160 -5 0 -110 0 -110 111 -3 111 -3 43 -100 44 -100 -17 -127 c-31 -238 -80 -390 -164 -505 -32 -43 -37 -59 -49 -159 -8 -61 -15 -118 -16 -127 -3 -14 16 -16 155 -19 l157 -3 0 -79 0 -80 515 0 515 0 0 80 0 80 155 0 c104 0 155 4 155 11 0 6 -7 65 -16 132 -14 111 -18 124 -48 159 -76 89 -135 258 -168 484 l-20 141 45 104 45 104 114 5 113 5 0 110 0 110 -169 3 -168 2 6 31 c3 18 6 35 6 40 0 5 18 9 40 9 l41 0 -3 131 -3 130 -120 0 -120 1 -3 -61 -3 -61 -44 0 -45 0 0 59 c0 33 -4 61 -10 63 -5 2 -64 2 -130 0 l-120 -3 0 -60 0 -59 -45 0 -44 0 -3 63 -3 62 -35 3 c-19 2 -77 1 -127 -3 l-93 -7 0 -59 0 -59 -45 0 -45 0 0 59 c0 51 -3 61 -20 66 -23 7 -217 3 -229 -5z m569 -455 l0 -65 -115 0 c-63 0 -115 -2 -115 -4 0 -6 268 -624 287 -661 8 -16 25 -57 38 -90 42 -108 66 -156 76 -150 5 4 9 11 9 16 0 10 10 33 75 174 69 148 315 709 312 711 -1 2 -97 4 -212 6 l-210 3 0 60 0 60 385 0 385 0 3 -54 c2 -37 -1 -57 -10 -62 -7 -5 -56 -9 -108 -9 l-95 -1 -154 -352 c-85 -194 -170 -386 -189 -427 -55 -122 -85 -200 -77 -208 4 -4 57 -7 118 -8 62 0 118 -1 125 -2 9 -2 12 -40 12 -152 l0 -150 -465 0 -465 0 0 150 0 150 118 1 c64 1 122 2 127 4 6 1 13 3 17 3 5 2 -44 120 -118 282 -9 19 -82 186 -164 370 l-148 335 -103 5 -104 5 -3 49 c-2 27 -1 55 2 62 4 12 72 14 386 14 l380 0 0 -65z"></path><path d="M510 1445 c0 -8 57 -139 183 -420 139 -313 177 -398 209 -473 33 -80 52 -105 77 -99 24 5 56 -72 -278 682 -128 290 -138 310 -164 313 -15 2 -27 0 -27 -3z"></path><path d="M630 392 c0 -6 9 -14 21 -17 11 -4 27 -21 35 -39 15 -30 14 -34 -6 -69 -12 -21 -31 -42 -42 -48 -11 -6 -17 -13 -14 -16 7 -7 197 -5 205 2 2 3 -5 12 -17 21 -24 16 -52 64 -52 88 0 8 14 29 31 46 17 17 30 33 27 35 -2 2 -21 2 -42 -2 -24 -4 -34 -9 -27 -16 11 -11 3 -39 -10 -31 -5 3 -9 14 -9 25 0 12 -7 19 -19 19 -10 0 -33 3 -50 6 -19 4 -31 2 -31 -4z m100 -142 c13 -24 5 -41 -15 -33 -15 5 -20 34 -8 46 9 10 11 9 23 -13z"></path><path d="M850 389 c0 -4 11 -14 25 -23 14 -9 27 -27 31 -40 6 -27 -19 -84 -47 -104 -11 -7 -19 -16 -19 -20 0 -8 321 -4 329 4 3 3 -2 10 -12 15 -13 8 -17 24 -17 77 0 39 5 73 12 80 17 17 7 22 -33 16 l-35 -6 4 -67 c3 -54 1 -71 -15 -90 -17 -20 -22 -22 -41 -12 -12 6 -31 30 -43 52 l-20 41 26 34 c14 19 30 34 36 34 5 0 9 3 9 8 0 4 -43 7 -95 7 -52 0 -95 -3 -95 -6z m115 -39 c-5 -8 -11 -8 -17 -2 -6 6 -7 16 -3 22 5 8 11 8 17 2 6 -6 7 -16 3 -22z m-20 -101 c8 -25 -5 -41 -24 -30 -8 5 -11 16 -6 30 8 27 22 27 30 0z"></path><path d="M1180 389 c0 -4 7 -9 14 -12 27 -11 60 -157 36 -157 -5 0 -10 -4 -10 -10 0 -6 27 -10 60 -10 54 0 79 12 48 22 -15 5 17 131 38 149 8 6 14 14 14 18 0 3 -45 6 -100 6 -55 0 -100 -3 -100 -6z m124 -15 c19 -7 20 -34 5 -88 -8 -29 -13 -35 -20 -25 -12 20 -22 95 -14 108 7 13 8 13 29 5z"></path></g></svg>