<svg xmlns:inkscape="http://www.inkscape.org/namespaces/inkscape" xmlns:sodipodi="http://sodipodi.sourceforge.net/DTD/sodipodi-0.dtd" xmlns="http://www.w3.org/2000/svg" xmlns:svg="http://www.w3.org/2000/svg" width="54.50523mm" height="99.865852mm" viewBox="0 0 54.505228 99.865849" id="svg1" xml:space="preserve" inkscape:version="1.3.2 (1:1.3.2+202311252150+091e20ef0f)" sodipodi:docname="ymelok.svg">  <defs id="defs1"></defs>  <g inkscape:label="Calque 1" inkscape:groupmode="layer" id="layer1" transform="translate(-81.607961,-70.13267)">    <path style="fill:#currentColor" d="m 81.80903,169.9026 c -0.31367,-0.31385 -0.23986,-6.66811 0.0797,-6.86564 0.153,-0.0946 1.49245,-0.0464 2.97656,0.10705 1.48411,0.15343 3.59135,0.33788 4.68275,0.40987 1.09141,0.072 2.81782,0.19268 3.83646,0.2682 1.01865,0.0755 4.13945,0.20251 6.93511,0.2822 l 5.08302,0.14491 0.37175,-0.7342 c 0.4736,-0.93535 0.73824,-3.59687 0.49304,-4.9585 -0.20981,-1.1651 -0.17428,-1.14808 -3.6225,-1.73603 -9.35562,-1.59523 -17.34721,-7.92295 -19.92557,-15.77701 -0.5494,-1.67357 -1.00997,-4.90022 -0.75771,-5.30838 0.18071,-0.2924 4.95417,0.137 5.37128,0.48317 0.16722,0.13878 0.38769,0.9218 0.48992,1.74005 0.2115,1.6928 0.35286,2.09865 1.68754,4.84523 1.45086,2.98565 4.63464,6.07427 7.97516,7.73681 3.24317,1.61408 5.34691,2.26329 8.46133,2.61116 5.01014,0.55961 9.57183,-0.23431 14.02556,-2.44101 2.37311,-1.17581 3.1029,-1.70464 5.03459,-3.64825 1.55996,-1.56959 2.55467,-2.84633 3.21396,-4.1252 1.03141,-2.0007 1.80588,-4.39244 1.81236,-5.59697 0.002,-0.41416 0.0915,-0.88762 0.19844,-1.05213 0.10691,-0.16451 1.20642,-0.3814 2.44335,-0.48197 1.23692,-0.10057 2.44763,-0.23881 2.69046,-0.3072 0.61513,-0.17325 0.68735,0.46421 0.31819,2.80866 -0.76239,4.84171 -3.53303,9.37728 -7.82699,12.81287 -3.52739,2.82225 -8.6404,5.08356 -12.94017,5.72298 -3.50735,0.52159 -3.26464,0.29825 -3.35175,3.08417 -0.0534,1.70731 0.0419,2.70865 0.3212,3.37722 l 0.39708,0.95034 4.97047,-0.14502 c 5.13653,-0.14987 10.55728,-0.48783 15.47816,-0.96499 1.55913,-0.15118 2.95811,-0.19865 3.10885,-0.10549 0.34979,0.21618 0.36945,6.66257 0.021,6.87793 -0.21552,0.1332 -2.40464,-0.0222 -7.28753,-0.51742 -0.58208,-0.059 -4.33255,-0.24483 -8.33437,-0.41289 -11.22471,-0.47139 -28.67146,-0.0189 -36.90938,0.95727 -0.7276,0.0862 -1.41221,0.0674 -1.52135,-0.0418 z m 23.0908,-19.70889 c -3.35641,-0.59798 -7.46768,-3.31188 -9.80014,-6.46922 -2.47432,-3.34937 -4.2364,-8.42451 -4.22349,-12.16454 0.01,-2.89421 1.13908,-7.47451 2.51876,-10.21761 1.48073,-2.94399 4.57585,-6.4024 6.86876,-7.67496 l 1.05833,-0.58737 -1.23222,1.33104 c -2.67988,2.89478 -3.18415,5.34402 -1.47574,7.16771 2.555,2.72741 6.33185,1.24005 9.76504,-3.84556 2.69792,-3.99646 3.65403,-6.99732 3.64521,-11.44096 -0.009,-4.43557 -0.61559,-6.35595 -3.85066,-12.18674 -2.53143,-4.5626 -3.54335,-7.88208 -3.54403,-11.62586 -8.3e-4,-4.6187 2.1353,-9.48546 5.18408,-11.81087 1.11876,-0.85332 1.41989,-0.66636 0.65558,0.40702 -1.57641,2.21386 -2.24877,5.18367 -1.88445,8.32369 0.47145,4.06342 2.51492,7.50475 7.01072,11.8065 7.10794,6.80115 9.2569,9.10186 10.38416,11.11751 1.39125,2.48768 2.39874,5.4832 2.73428,8.12971 0.51515,4.06307 -0.17805,6.02398 -4.11075,11.62843 -3.10641,4.42691 -4.35964,6.82145 -4.55358,8.70048 -0.194,1.87974 0.0171,2.52242 1.0596,3.22524 1.14573,0.77244 2.85313,0.79056 4.06252,0.0431 0.97564,-0.60299 2.09421,-2.3074 2.51541,-3.83285 0.35321,-1.27924 0.74296,-0.8706 0.9289,0.97391 0.19033,1.88813 -0.6828,5.368 -1.87937,7.49025 -2.77051,4.91381 -7.7542,8.94877 -13.47083,10.90644 -2.16988,0.74308 -6.02696,1.02223 -8.36609,0.60549 z m 4.7337,-8.06814 c 1.60585,-0.47688 3.4981,-2.0681 4.27853,-3.59787 0.62456,-1.22424 0.68146,-3.97172 0.11055,-5.33809 -0.54893,-1.31379 -1.86304,-2.7431 -3.15051,-3.4267 -1.39306,-0.73967 -4.59824,-0.7949 -5.90784,-0.10179 -1.23316,0.65264 -2.7002,2.20469 -3.2701,3.45958 -0.68221,1.50221 -0.65779,3.80724 0.0564,5.32669 0.71669,1.52469 2.61972,3.20183 4.17762,3.68174 1.59394,0.491 2.04139,0.49058 3.70532,-0.004 z" id="path1"></path>  </g></svg>